<svg xmlns="http://www.w3.org/2000/svg" viewBox="0 0 32 32" role="img" aria-label="I Ching Oracle">
  <defs>
    <style>
      .field{fill:#17121d;}
      .rim{fill:none;stroke:#6d31c3;stroke-width:1.4;opacity:.72;}
      .mark{fill:#b97aff;stroke:#120d18;stroke-width:.55;paint-order:stroke fill;vector-effect:non-scaling-stroke;}
      .glint{fill:#d7b8ff;opacity:.72;}
    </style>
  </defs>
  <rect class="field" width="32" height="32" rx="6"/>
  <rect class="rim" x="1.8" y="1.8" width="28.4" height="28.4" rx="4.6"/>
  <path class="mark" transform="translate(4 23.15) scale(.024 -.024)" d="M248 629H768V599H248ZM248 475H768V445H248ZM720 778H710L747 819L828 757Q823 751 811.5 745.0Q800 739 785 736V428Q785 425 775.5 419.5Q766 414 753.5 410.0Q741 406 730 406H720ZM223 778V810L293 778H774V749H287V419Q287 417 279.0 411.5Q271 406 259.0 401.5Q247 397 232 397H223ZM295 333H839V304H266ZM447 333H516V317Q456 218 357.5 136.0Q259 54 139 -3L128 13Q195 54 254.5 105.5Q314 157 363.5 215.5Q413 274 447 333ZM633 333H706V317Q654 182 551.0 82.0Q448 -18 290 -84L281 -67Q414 3 502.0 105.5Q590 208 633 333ZM817 333H807L845 374L921 310Q916 305 906.0 301.5Q896 298 880 296Q871 214 855.0 144.5Q839 75 817.5 27.0Q796 -21 770 -42Q749 -58 718.5 -67.0Q688 -76 655 -75Q655 -61 651.0 -48.5Q647 -36 635 -28Q623 -20 593.0 -13.0Q563 -6 532 -1L533 17Q556 14 587.5 11.5Q619 9 647.0 7.0Q675 5 686 5Q702 5 711.0 7.5Q720 10 730 17Q748 30 765.0 75.5Q782 121 796.0 187.5Q810 254 817 333ZM407 411Q370 364 317.0 313.5Q264 263 199.0 217.5Q134 172 63 140L52 153Q114 191 170.5 243.0Q227 295 272.5 350.5Q318 406 344 454L450 428Q448 420 438.5 415.5Q429 411 407 411Z"/>
  <rect class="glint" x="10.4" y="6.35" width="11.2" height="1.25" rx=".6"/>
</svg>
